<?xml version="1.0" standalone="no"?>
<!DOCTYPE svg PUBLIC "-//W3C//DTD SVG 20010904//EN"
 "http://www.w3.org/TR/2001/REC-SVG-20010904/DTD/svg10.dtd">
<svg version="1.0" xmlns="http://www.w3.org/2000/svg"
 width="1152.000000pt" height="948.000000pt" viewBox="0 0 1152.000000 948.000000"
 preserveAspectRatio="xMidYMid meet">

<g transform="translate(0.000000,948.000000) scale(0.100000,-0.100000)"
fill="#000000" stroke="none">
<path d="M5536 8309 c-38 -5 -123 -23 -190 -40 -849 -212 -1730 -1088 -2643
-2629 -60 -102 -503 -887 -984 -1744 l-874 -1559 -3 111 -3 112 -187 -2 -187
-3 -3 -517 -2 -518 190 0 190 0 0 100 0 101 977 1704 976 1705 1086 672 c597
369 1208 748 1356 841 149 94 304 186 345 206 72 35 79 36 185 36 102 0 115
-2 175 -31 36 -17 149 -83 250 -146 102 -63 712 -440 1355 -838 644 -397 1178
-730 1187 -739 10 -9 454 -778 988 -1710 l970 -1693 0 -104 0 -104 190 0 190
0 0 525 0 525 -190 0 -189 0 -3 -113 -3 -113 -815 1445 c-1072 1901 -1177
2082 -1466 2513 -328 490 -645 882 -960 1188 -391 379 -747 614 -1119 739
-204 67 -293 82 -520 86 -110 2 -231 -1 -269 -6z"/>
<path d="M5965 6274 c-103 -37 -195 -148 -231 -281 -15 -56 -18 -108 -19 -303
0 -129 -5 -296 -9 -370 -7 -100 -6 -142 3 -158 11 -21 9 -24 -33 -42 -87 -37
-153 -87 -182 -136 -16 -27 -37 -89 -49 -142 l-20 -93 -381 1 c-435 1 -411 6
-400 -83 8 -57 100 -448 140 -589 13 -49 20 -88 15 -88 -4 0 -37 16 -72 35
-105 58 -187 59 -271 4 -94 -62 -131 -179 -87 -274 58 -129 315 -377 496 -480
28 -16 51 -30 53 -31 2 -1 -6 -33 -17 -72 -37 -121 -26 -209 33 -279 l28 -33
-351 0 c-401 0 -366 -8 -418 99 -20 41 -28 73 -31 135 -2 56 38 491 127 1391
72 720 130 1312 129 1315 -2 4 -304 -177 -673 -401 -446 -272 -676 -417 -689
-436 -10 -15 -335 -752 -721 -1638 l-703 -1610 4131 -3 c2272 -1 4132 0 4134
2 2 2 -317 738 -709 1635 l-712 1631 -676 414 c-371 228 -676 413 -677 413 -1
-1 62 -607 138 -1347 126 -1211 139 -1351 128 -1405 -11 -60 -35 -117 -71
-167 l-19 -28 -390 0 c-214 0 -389 1 -389 3 0 1 25 29 55 62 77 82 143 200
189 335 34 102 39 129 44 238 3 78 1 122 -5 122 -6 0 -13 -20 -15 -44 -9 -73
-46 -135 -132 -222 -78 -77 -275 -218 -322 -230 -15 -4 -30 4 -52 25 -38 39
-83 41 -133 7 -50 -34 -132 -56 -211 -56 -37 0 -68 -4 -68 -9 0 -4 28 -15 63
-22 81 -18 248 -16 312 5 35 11 51 12 56 4 8 -12 34 -151 45 -235 6 -47 4 -54
-19 -77 -34 -34 -86 -34 -215 -1 -124 31 -262 55 -319 55 -32 0 -45 5 -50 17
-10 25 14 147 46 241 l29 83 -22 13 c-11 7 -61 35 -111 61 -110 58 -392 245
-400 264 -5 12 -2 12 12 -1 24 -21 212 -136 289 -177 l60 -32 140 93 c76 52
201 125 277 163 93 46 151 82 178 109 21 23 39 44 39 48 0 3 22 22 48 42 158
115 273 120 387 15 l46 -42 86 18 c115 24 183 59 206 106 37 75 42 137 24 266
-41 296 -162 797 -220 913 -37 75 -89 119 -169 145 -71 23 -92 45 -127 129
-42 102 -67 216 -92 416 -32 259 -87 430 -167 514 -64 66 -145 85 -195 46 -14
-11 -28 -20 -32 -20 -3 0 -3 9 0 20 6 18 2 20 -32 19 -21 0 -56 -7 -78 -15z
m80 -21 c-13 -33 -18 -83 -8 -83 5 0 16 12 24 26 39 74 110 93 185 49 100 -59
165 -229 204 -535 35 -268 59 -364 122 -482 27 -51 36 -59 72 -69 66 -18 133
-56 160 -92 44 -58 83 -167 139 -397 89 -361 135 -653 117 -739 -25 -116 -40
-129 -193 -171 -95 -26 -109 -25 -135 9 -12 16 -47 42 -79 57 -105 52 -204 33
-329 -62 l-52 -39 -183 7 c-178 7 -657 29 -1023 48 -99 5 -183 7 -188 4 -13
-9 -9 -82 6 -97 16 -16 -4 -14 745 -52 272 -14 496 -27 498 -29 3 -2 -49 -32
-114 -65 -65 -34 -174 -99 -243 -145 l-125 -84 -55 29 c-76 41 -251 151 -370
233 -55 38 -104 66 -108 61 -4 -4 27 -39 68 -77 118 -109 392 -294 548 -369
72 -35 69 -21 29 -154 -14 -44 -29 -108 -34 -143 -12 -78 -2 -92 66 -92 54 0
201 -24 276 -45 43 -12 -60 -13 -790 -12 l-840 2 -55 26 c-30 14 -66 36 -80
47 l-25 22 669 -1 c368 0 670 2 673 4 7 8 -105 106 -145 126 -22 11 -76 30
-119 42 -104 28 -131 46 -240 153 -63 61 -96 87 -103 80 -24 -24 -50 -126 -50
-195 0 -56 5 -82 25 -121 14 -28 24 -52 22 -54 -1 -2 -17 5 -35 16 -70 43 -91
156 -52 282 11 34 20 68 20 73 0 6 -33 29 -73 53 -104 62 -180 121 -276 215
-108 106 -179 192 -202 242 -38 83 -16 182 53 240 91 77 180 74 315 -9 39 -24
74 -42 76 -39 3 2 -8 53 -24 111 -33 121 -121 482 -142 584 -9 46 -10 71 -3
78 21 21 835 8 1225 -19 92 -6 117 -11 127 -26 13 -18 80 -289 189 -772 3 -13
10 -23 16 -23 18 0 307 50 321 55 9 4 20 46 30 118 15 104 77 352 85 343 2 -2
-7 -68 -21 -147 -13 -79 -28 -179 -31 -221 -9 -92 -13 -90 103 -53 46 15 88
35 101 49 l24 25 -37 103 c-19 57 -54 177 -76 268 -50 204 -51 206 -107 266
-61 67 -118 155 -140 217 -16 49 -22 178 -11 281 3 27 -3 33 -57 64 -129 72
-144 104 -145 297 0 225 -33 424 -81 497 -39 59 -76 82 -140 86 -48 4 -65 0
-108 -24 -97 -52 -136 -145 -136 -324 1 -121 19 -195 65 -258 40 -56 70 -73
138 -81 l57 -7 -40 -12 c-22 -7 -50 -12 -61 -12 -20 0 -22 -7 -26 -77 -4 -58
-12 -91 -31 -130 -22 -42 -27 -66 -27 -123 0 -116 30 -162 115 -178 l50 -10
-53 -1 c-59 -1 -105 18 -124 52 -7 12 -25 51 -39 87 -15 36 -33 66 -40 67 -34
6 -122 -149 -154 -272 l-22 -80 -77 -3 -78 -3 7 53 c4 29 16 81 27 116 27 90
68 127 223 205 119 59 187 108 173 123 -3 3 -30 -13 -59 -35 -95 -72 -107 -55
-93 133 4 67 9 229 10 361 1 191 5 252 18 300 37 132 114 222 225 261 53 19
75 18 66 -3z m66 -166 c79 -53 115 -196 125 -497 8 -252 22 -284 161 -362 45
-26 54 -34 49 -52 -3 -12 -9 -52 -12 -91 -12 -134 38 -271 138 -380 60 -65 97
-132 98 -174 0 -13 -18 -78 -39 -145 -36 -114 -71 -266 -87 -379 -3 -26 -10
-50 -15 -53 -18 -11 -294 -53 -300 -46 -5 6 -40 152 -156 653 -33 143 -39 149
-180 160 -59 4 -141 8 -181 8 -55 1 -74 5 -78 16 -16 40 59 235 116 303 19 22
40 23 40 0 0 -5 14 -39 30 -73 42 -88 77 -109 171 -103 84 6 156 46 229 125
65 71 149 223 123 223 -5 0 -27 -30 -48 -67 -72 -124 -158 -199 -257 -223
-101 -26 -148 21 -148 148 0 56 5 81 26 123 18 36 29 75 32 120 l5 68 49 10
c27 6 61 18 76 26 41 22 98 73 90 80 -4 4 -36 -5 -72 -19 -77 -31 -120 -33
-162 -7 -82 50 -118 141 -118 301 0 127 13 186 51 243 57 83 171 113 244 64z
m618 -1779 c11 -48 34 -123 50 -166 32 -88 29 -102 -22 -129 -43 -22 -126 -43
-132 -34 -11 18 36 343 61 420 8 25 21 -2 43 -91z m-1274 -568 c242 -11 520
-22 618 -26 97 -4 177 -10 177 -14 0 -5 -14 -23 -30 -40 l-31 -33 -157 7 c-86
4 -274 13 -417 21 -143 8 -359 19 -480 25 -121 6 -226 13 -232 15 -13 4 -18
57 -7 68 4 4 32 4 63 1 31 -2 254 -13 496 -24z m1329 -317 c-12 -88 -55 -216
-100 -303 -50 -99 -140 -212 -190 -242 -19 -11 -31 -24 -28 -29 3 -5 179 -9
407 -9 l402 -1 -25 -21 c-14 -11 -50 -33 -80 -47 l-55 -26 -387 -3 -387 -3 14
35 c16 38 9 124 -21 256 -8 36 -11 66 -6 68 30 10 178 102 239 148 78 60 178
163 196 201 17 39 29 26 21 -24z m-1568 -381 c16 -11 73 -32 125 -47 95 -27
166 -64 209 -110 l23 -25 -251 0 -251 0 -35 30 c-24 22 -38 45 -46 81 -16 65
-8 174 14 218 l18 34 81 -80 c45 -44 96 -89 113 -101z m1052 95 c12 -11 22
-24 22 -28 0 -22 -233 -50 -266 -31 -17 10 -16 11 12 12 28 0 58 13 148 63 32
17 50 14 84 -16z m-2899 -630 c52 -34 79 -81 97 -169 13 -61 14 -90 4 -177
-19 -173 -68 -268 -162 -315 -97 -48 -200 -24 -265 61 -41 55 -54 123 -49 248
10 244 120 395 279 382 39 -4 71 -13 96 -30z m3103 23 c118 -33 174 -174 150
-378 -15 -128 -43 -202 -101 -261 -69 -70 -163 -90 -246 -52 -51 23 -78 53
-107 116 -19 44 -22 65 -21 167 3 293 137 460 325 408z m-3622 -22 c79 -40
110 -113 94 -217 l-9 -56 -84 -3 c-53 -2 -87 1 -91 8 -4 6 -1 34 7 63 15 58
10 87 -16 87 -60 0 -134 -197 -118 -315 18 -131 85 -138 165 -19 19 27 39 50
46 52 7 2 30 -16 50 -38 l37 -41 -22 -39 c-36 -63 -77 -108 -127 -138 -39 -23
-58 -27 -117 -27 -84 1 -123 19 -165 77 -80 110 -81 298 -3 451 33 65 99 136
148 158 58 27 149 25 205 -3z m1052 -11 c152 -89 142 -414 -17 -580 -68 -71
-117 -90 -252 -95 l-113 -5 0 69 c0 38 7 179 15 314 8 135 15 253 15 263 0 21
25 33 110 52 94 21 188 14 242 -18z m352 -2 c-1 -16 -7 -120 -14 -230 -7 -110
-14 -254 -14 -320 l-1 -120 -90 0 -90 0 3 135 c3 163 21 516 28 548 4 22 8 23
92 20 l87 -3 -1 -30z m971 1 c48 -31 65 -73 65 -158 0 -42 -3 -79 -7 -81 -5
-3 -42 -6 -83 -8 l-75 -4 -5 60 c-4 51 -8 60 -25 63 -53 7 -104 -110 -108
-246 -1 -48 1 -99 6 -114 9 -35 48 -46 82 -24 33 22 32 42 -2 41 -26 0 -28 3
-26 35 4 79 14 120 34 130 10 6 51 12 90 13 67 2 72 0 96 -27 23 -27 25 -36
20 -99 -9 -139 -92 -237 -211 -252 -164 -21 -246 55 -254 236 -14 292 130 489
335 459 23 -4 53 -14 68 -24z m2722 2 c25 -23 37 -50 57 -133 26 -105 97 -518
92 -532 -4 -9 -29 -13 -95 -13 -101 0 -101 0 -101 93 0 31 -4 47 -12 47 -19
-1 -138 -27 -142 -31 -2 -2 -10 -26 -18 -54 l-14 -50 -88 2 c-49 1 -91 5 -94
8 -15 15 96 357 182 562 l47 112 52 9 c65 11 106 5 134 -20z m398 -28 c-1 -30
-5 -141 -9 -247 l-8 -192 123 -3 124 -3 3 -84 c2 -46 -1 -88 -5 -92 -13 -12
-415 -32 -422 -21 -4 8 23 684 28 700 1 2 38 2 84 0 l82 -3 0 -55z m460 0 c-1
-30 -5 -141 -9 -247 l-8 -192 123 -3 124 -3 3 -84 c2 -46 -1 -88 -5 -92 -13
-12 -415 -32 -422 -21 -4 8 23 684 28 700 1 2 38 2 84 0 l82 -3 0 -55z m-4312
25 c14 -15 43 -75 69 -143 34 -92 44 -111 46 -87 1 17 6 80 10 140 l7 110 76
3 c56 2 78 -1 81 -10 2 -7 1 -51 -3 -98 -4 -47 -8 -138 -8 -202 -1 -65 -4
-118 -8 -118 -5 0 -7 -58 -5 -129 l3 -129 -64 -7 c-35 -4 -73 -5 -83 -3 -13 2
-33 39 -71 138 -29 74 -53 135 -52 135 1 0 -20 52 -31 80 -5 12 -9 -32 -9
-115 -1 -74 -4 -159 -7 -187 l-7 -53 -83 0 c-46 0 -84 4 -86 10 -8 26 35 661
47 681 4 5 39 9 79 9 65 0 76 -3 99 -25z m1617 -29 c0 -99 -2 -101 -132 -115
-168 -19 -158 -14 -158 -78 l0 -55 113 3 112 4 0 -75 0 -75 -50 -7 c-27 -4
-80 -12 -117 -19 l-67 -11 -3 -106 -3 -107 -84 -3 -84 -3 6 183 c7 210 26 453
38 485 9 24 17 25 322 31 l107 2 0 -54z m987 28 c50 -38 68 -81 67 -164 0 -85
-20 -134 -74 -187 l-32 -32 51 -97 c28 -53 51 -100 51 -104 0 -9 -122 -90
-136 -90 -5 0 -26 34 -47 75 -20 42 -48 93 -62 115 -21 34 -28 38 -47 31 -26
-10 -37 -50 -37 -148 l-1 -63 -80 0 -80 0 0 38 c0 85 40 616 47 623 15 14 147
27 250 26 86 -2 106 -5 130 -23z"/>
<path d="M5436 4401 c-6 -10 -76 -367 -76 -388 0 -20 38 -15 44 5 18 64 68
362 63 376 -7 18 -23 21 -31 7z"/>
<path d="M5181 4292 c-39 -44 -71 -86 -71 -93 1 -20 135 -159 154 -159 30 0
16 33 -40 97 -63 71 -64 62 14 144 42 45 52 77 26 86 -6 2 -43 -32 -83 -75z"/>
<path d="M5567 4363 c-17 -16 -3 -42 53 -98 l60 -60 -60 -67 c-61 -68 -74 -98
-42 -98 21 0 152 140 152 162 0 15 -136 168 -149 168 -4 0 -11 -3 -14 -7z"/>
<path d="M3228 2383 c-32 -36 -50 -116 -55 -238 -5 -108 -3 -122 14 -144 38
-47 80 -8 102 97 14 69 14 244 -1 277 -13 29 -38 32 -60 8z"/>
<path d="M3315 2300 c-3 -5 -1 -10 4 -10 6 0 11 5 11 10 0 6 -2 10 -4 10 -3 0
-8 -4 -11 -10z"/>
<path d="M3310 2172 c0 -12 19 -26 26 -19 2 2 -2 10 -11 17 -9 8 -15 8 -15 2z"/>
<path d="M3420 2170 c-1 -3 -4 -15 -5 -28 -1 -15 1 -20 7 -14 6 6 8 18 5 28
-3 11 -6 17 -7 14z"/>
<path d="M3308 2083 c6 -2 18 -2 25 0 6 3 1 5 -13 5 -14 0 -19 -2 -12 -5z"/>
<path d="M3416 2073 c-6 -14 -5 -15 5 -6 7 7 10 15 7 18 -3 3 -9 -2 -12 -12z"/>
<path d="M3370 2065 c-1 -5 -2 -13 -1 -17 0 -5 -3 -8 -9 -8 -5 0 -10 -5 -10
-12 0 -8 6 -7 16 4 9 9 14 22 11 30 -3 7 -6 9 -7 3z"/>
<path d="M3135 1949 c-10 -15 3 -25 16 -12 7 7 7 13 1 17 -6 3 -14 1 -17 -5z"/>
<path d="M3310 1950 c0 -5 7 -10 16 -10 8 0 12 5 9 10 -3 6 -10 10 -16 10 -5
0 -9 -4 -9 -10z"/>
<path d="M6374 2375 c-28 -43 -45 -118 -50 -230 -6 -119 4 -157 42 -163 11 -2
28 6 38 17 21 23 46 117 46 174 0 20 4 37 8 37 10 0 -4 137 -18 168 -13 29
-45 28 -66 -3z"/>
<path d="M6462 2168 c5 -15 28 -23 28 -10 0 5 -7 13 -16 16 -10 4 -14 1 -12
-6z"/>
<path d="M6580 2170 c-22 -13 -21 -46 1 -46 13 0 15 3 7 13 -7 9 -7 17 2 28
14 17 11 19 -10 5z"/>
<path d="M6468 2083 c7 -3 16 -2 19 1 4 3 -2 6 -13 5 -11 0 -14 -3 -6 -6z"/>
<path d="M6567 2076 c-4 -10 -3 -15 3 -11 6 3 10 1 10 -6 0 -7 3 -10 6 -6 3 3
2 13 -4 22 -8 16 -9 16 -15 1z"/>
<path d="M6516 2061 c-3 -5 0 -11 7 -14 8 -3 14 1 14 9 0 16 -13 19 -21 5z"/>
<path d="M6505 2030 c-3 -5 -1 -10 4 -10 6 0 11 5 11 10 0 6 -2 10 -4 10 -3 0
-8 -4 -11 -10z"/>
<path d="M6191 1944 c0 -11 3 -14 6 -6 3 7 2 16 -1 19 -3 4 -6 -2 -5 -13z"/>
<path d="M6465 1950 c3 -5 14 -10 23 -10 15 0 15 2 2 10 -20 13 -33 13 -25 0z"/>
<path d="M6285 1940 c3 -5 10 -10 16 -10 5 0 9 5 9 10 0 6 -7 10 -16 10 -8 0
-12 -4 -9 -10z"/>
<path d="M2852 2350 c0 -14 2 -19 5 -12 2 6 2 18 0 25 -3 6 -5 1 -5 -13z"/>
<path d="M3718 2348 c-12 -10 -17 -42 -22 -143 -4 -71 -11 -133 -15 -138 -10
-10 -1 -67 11 -67 6 0 25 7 44 16 40 19 77 77 95 149 12 51 25 68 43 58 5 -3
6 -1 2 5 -4 6 -13 9 -21 5 -12 -4 -15 3 -15 31 0 21 -7 50 -15 66 -13 25 -22
30 -53 30 -21 0 -45 -6 -54 -12z"/>
<path d="M3562 2280 c0 -14 2 -19 5 -12 2 6 2 18 0 25 -3 6 -5 1 -5 -13z"/>
<path d="M3911 2134 c0 -11 3 -14 6 -6 3 7 2 16 -1 19 -3 4 -6 -2 -5 -13z"/>
<path d="M3560 1899 c0 -5 5 -7 10 -4 6 3 10 8 10 11 0 2 -4 4 -10 4 -5 0 -10
-5 -10 -11z"/>
<path d="M4090 2480 c0 -14 -3 -35 -6 -47 -4 -14 -2 -23 5 -23 6 0 10 3 9 8
-1 4 8 26 20 49 l22 43 -25 -2 c-20 -2 -25 -8 -25 -28z"/>
<path d="M4089 2395 c-3 -5 -6 -50 -6 -100 l-1 -90 9 80 c9 82 8 128 -2 110z"/>
<path d="M4072 2135 c0 -16 2 -22 5 -12 2 9 2 23 0 30 -3 6 -5 -1 -5 -18z"/>
<path d="M4185 2090 c-3 -5 -1 -10 4 -10 6 0 11 5 11 10 0 6 -2 10 -4 10 -3 0
-8 -4 -11 -10z"/>
<path d="M5221 2074 c0 -11 3 -14 6 -6 3 7 2 16 -1 19 -3 4 -6 -2 -5 -13z"/>
<path d="M7822 2199 c-12 -41 -22 -77 -22 -81 0 -5 16 -8 36 -8 l36 0 -6 54
c-4 30 -11 66 -15 82 -6 25 -9 20 -29 -47z"/>
<path d="M7771 2163 c-17 -43 -27 -73 -21 -67 12 12 61 136 56 141 -2 2 -17
-31 -35 -74z"/>
<path d="M7956 2142 c-3 -6 -1 -14 5 -17 14 -9 20 -2 10 14 -6 8 -11 9 -15 3z"/>
<path d="M7977 2004 c8 -4 9 -13 1 -35 -9 -26 -7 -33 10 -49 11 -11 23 -28 27
-40 11 -34 24 -22 14 12 -5 18 -9 46 -9 61 0 16 -4 26 -9 23 -5 -3 -11 3 -14
14 -3 11 -11 20 -19 19 -9 0 -9 -2 -1 -5z"/>
<path d="M7710 1990 c0 -5 5 -10 10 -10 6 0 10 5 10 10 0 6 -4 10 -10 10 -5 0
-10 -4 -10 -10z"/>
<path d="M4610 1970 c0 -5 5 -10 11 -10 5 0 7 5 4 10 -3 6 -8 10 -11 10 -2 0
-4 -4 -4 -10z"/>
<path d="M6894 2359 c-26 -7 -32 -15 -38 -46 -3 -21 -6 -53 -6 -70 0 -40 21
-43 80 -13 44 23 73 68 68 108 -3 23 -8 27 -38 29 -19 1 -49 -3 -66 -8z"/>
</g>
</svg>
